HIERARCHY
ROOT joint_Root
{
	OFFSET 0.0 0.0 0.0
	CHANNELS 6 Xposition Yposition Zposition Zrotation Xrotation Yrotation 
	JOINT Hips
	{
		OFFSET 4.5925 91.4895 -427.239
		CHANNELS 6 Xposition Yposition Zposition Zrotation Xrotation Yrotation 
		JOINT Spine
		{
			OFFSET 15.7357 0.0 0.0
			CHANNELS 6 Xposition Yposition Zposition Zrotation Xrotation Yrotation 
			JOINT Chest
			{
				OFFSET 8.98455 -0.406207 0.0
				CHANNELS 6 Xposition Yposition Zposition Zrotation Xrotation Yrotation 
				JOINT Neck
				{
					OFFSET 16.3773 0.0 0.0
					CHANNELS 6 Xposition Yposition Zposition Zrotation Xrotation Yrotation 
					JOINT Head
					{
						OFFSET 6.45672 0.0 0.0
						CHANNELS 6 Xposition Yposition Zposition Zrotation Xrotation Yrotation 
						End Site
						{
							OFFSET 0.0 0.0 0.0
						}
					}
				}
				JOINT Shoulder_L
				{
					OFFSET 12.9942 -0.242716 4.98039
					CHANNELS 6 Xposition Yposition Zposition Zrotation Xrotation Yrotation 
					JOINT UpperArm_L
					{
						OFFSET 5.34809 0.0 0.0
						CHANNELS 6 Xposition Yposition Zposition Zrotation Xrotation Yrotation 
						JOINT LowerArm_L
						{
							OFFSET 24.3286 1.87007e-05 0.0
							CHANNELS 6 Xposition Yposition Zposition Zrotation Xrotation Yrotation 
							JOINT Hand_L
							{
								OFFSET 22.2916 0.0 0.0
								CHANNELS 6 Xposition Yposition Zposition Zrotation Xrotation Yrotation 
								End Site
								{
									OFFSET 0.0 0.0 0.0
								}
							}
						}
					}
				}
				JOINT Shoulder_R
				{
					OFFSET 12.9945 -0.242716 -4.98039
					CHANNELS 6 Xposition Yposition Zposition Zrotation Xrotation Yrotation 
					JOINT UpperArm_R
					{
						OFFSET -5.34813 0.0 0.0
						CHANNELS 6 Xposition Yposition Zposition Zrotation Xrotation Yrotation 
						JOINT LowerArm_R
						{
							OFFSET -24.3289 0.000322201 0.0
							CHANNELS 6 Xposition Yposition Zposition Zrotation Xrotation Yrotation 
							JOINT Hand_R
							{
								OFFSET -22.2915 -0.000108084 0.0
								CHANNELS 6 Xposition Yposition Zposition Zrotation Xrotation Yrotation 
								End Site
								{
									OFFSET 0.0 0.0 0.0
								}
							}
						}
					}
				}
			}
		}
		JOINT UpperLeg_L
		{
			OFFSET -2.19248 -6.46944 0.0
			CHANNELS 6 Xposition Yposition Zposition Zrotation Xrotation Yrotation 
			JOINT LowerLeg_L
			{
				OFFSET 39.0811 0.0 -1.23785e-05
				CHANNELS 6 Xposition Yposition Zposition Zrotation Xrotation Yrotation 
				JOINT Foot_L
				{
					OFFSET 40.9854 0.0 -1.26872e-05
					CHANNELS 6 Xposition Yposition Zposition Zrotation Xrotation Yrotation 
					JOINT Toes_L
					{
						OFFSET 11.7543 0.0 0.0
						CHANNELS 6 Xposition Yposition Zposition Zrotation Xrotation Yrotation 
						End Site
						{
							OFFSET 0.0 0.0 0.0
						}
					}
				}
			}
		}
		JOINT UpperLeg_R
		{
			OFFSET -2.19251 6.46944 0.0
			CHANNELS 6 Xposition Yposition Zposition Zrotation Xrotation Yrotation 
			JOINT LowerLeg_R
			{
				OFFSET -39.0811 -0.00228153 -0.0401928
				CHANNELS 6 Xposition Yposition Zposition Zrotation Xrotation Yrotation 
				JOINT Foot_R
				{
					OFFSET -40.9854 0.0 0.0
					CHANNELS 6 Xposition Yposition Zposition Zrotation Xrotation Yrotation 
					JOINT Toes_R
					{
						OFFSET -11.7543 0.0 0.0
						CHANNELS 6 Xposition Yposition Zposition Zrotation Xrotation Yrotation 
						End Site
						{
							OFFSET 0.0 0.0 0.0
						}
					}
				}
			}
		}
	}
}
MOTION
Frames:	8
Frame Time:	0.0333333
0.000000 0.000000 0.000000 0.000000 0.000000 -0.000000 -62.931800 89.691100 181.934000 93.125800 75.999400 -2.548850 15.735700 0.000005 -0.000001 99.796200 81.583200 -99.894600 8.984550 -0.406207 -0.000000 8.832770 2.848710 -0.416719 16.377300 -0.000001 -0.000001 0.897718 -0.617587 1.300330 6.456720 -0.000001 -0.000000 -1.907370 -0.536561 1.318590 12.994200 -0.242716 4.980390 -91.064000 3.280830 -72.020800 5.348090 -0.000007 -0.000001 -72.915800 27.358300 0.038325 24.328600 0.000019 0.000005 4.840540 23.461500 -12.008000 22.291600 -0.000001 0.000005 10.570900 5.128460 4.453560 12.994500 -0.242716 -4.980390 88.756500 8.144070 -81.288500 -5.348130 -0.000001 -0.000004 -50.579200 29.270600 -32.951200 -24.328900 0.000322 -0.000009 -1.968760 -2.567630 -37.484400 -22.291500 -0.000108 -0.000004 18.040600 5.416220 -3.471750 -2.192480 -6.469440 -0.000000 176.758000 -15.884500 -27.366300 39.081100 -0.000007 -0.000012 0.106296 -0.182101 30.272800 40.985400 -0.000006 -0.000013 3.395450 2.579440 -57.578900 11.754300 -0.000000 0.000003 -0.002092 -0.029867 -17.791200 -2.192510 6.469440 -0.000001 176.487000 20.051700 176.884000 -39.081100 -0.002282 -0.040193 0.007395 -0.006782 31.122600 -40.985400 0.000008 0.000006 7.171670 6.799290 -78.188000 -11.754300 -0.000006 -0.000006 -0.003085 -0.041564 -18.263500
0.000000 0.000000 0.000000 0.000000 0.000000 -0.000000 -60.254300 89.149100 182.008000 94.010900 76.125600 -3.699450 15.735700 0.000005 -0.000001 99.044200 81.762100 -99.402400 8.984550 -0.406207 -0.000000 8.519460 2.575240 -0.907625 16.377300 -0.000001 -0.000001 1.061450 -0.649642 1.472040 6.456720 -0.000001 -0.000000 -1.852630 -0.444863 1.629640 12.994200 -0.242716 4.980390 -91.086600 3.368940 -72.112400 5.348090 -0.000007 -0.000001 -72.497200 27.943500 -0.878531 24.328600 0.000019 0.000005 4.655610 23.048800 -11.749900 22.291600 -0.000001 0.000005 10.529300 5.126610 4.496880 12.994500 -0.242716 -4.980390 88.732000 8.335760 -81.319400 -5.348130 -0.000001 -0.000004 -50.095100 29.336000 -32.423900 -24.328900 0.000322 -0.000009 -1.969680 -2.526040 -37.949500 -22.291500 -0.000108 -0.000004 18.348500 5.421730 -3.657420 -2.192480 -6.469440 -0.000000 176.725000 -14.724500 -28.181500 39.081100 -0.000007 -0.000012 -0.033525 0.051459 33.084900 40.985400 -0.000006 -0.000013 3.428310 3.078410 -55.755200 11.754300 -0.000000 0.000003 -0.000015 -0.000195 -16.585200 -2.192510 6.469440 -0.000001 175.473000 19.287100 178.182000 -39.081100 -0.002282 -0.040193 0.005574 -0.003668 31.819300 -40.985400 0.000008 0.000006 6.248660 6.088470 -79.475100 -11.754300 -0.000006 -0.000006 -0.003084 -0.041551 -18.262900
0.000000 0.000000 0.000000 0.000000 0.000000 -0.000000 -57.217600 88.560300 182.073000 95.746400 76.363000 -5.569620 15.735700 0.000005 -0.000001 98.385800 82.008000 -99.102800 8.984550 -0.406207 -0.000000 8.066930 2.319070 -1.596190 16.377300 -0.000001 -0.000001 1.233420 -0.826464 1.612080 6.456720 -0.000001 -0.000000 -1.261580 -0.529685 2.109970 12.994200 -0.242716 4.980390 -91.146000 3.557610 -72.132200 5.348090 -0.000007 -0.000001 -71.536500 29.272300 -2.577660 24.328600 0.000019 0.000005 4.514570 22.661100 -11.581500 22.291600 -0.000001 0.000005 10.535500 5.134290 4.316430 12.994500 -0.242716 -4.980390 88.657800 8.651290 -81.146900 -5.348130 -0.000001 -0.000004 -50.553900 29.442000 -30.611300 -24.328900 0.000322 -0.000009 -1.863720 -2.387120 -37.981700 -22.291500 -0.000108 -0.000004 18.413900 5.419970 -3.597830 -2.192480 -6.469440 -0.000000 177.021000 -10.812500 -28.588200 39.081100 -0.000007 -0.000012 -0.113941 0.145897 37.989200 40.985400 -0.000006 -0.000013 2.360820 -0.826372 -60.076300 11.754300 -0.000000 0.000003 -0.000047 -0.000538 -16.598500 -2.192510 6.469440 -0.000001 174.378000 17.834400 179.215000 -39.081100 -0.002282 -0.040193 0.004949 -0.002513 33.356000 -40.985400 0.000008 0.000006 5.157290 4.735390 -79.751300 -11.754300 -0.000006 -0.000006 -0.360369 -0.459571 -19.189700
0.000000 0.000000 0.000000 0.000000 0.000000 -0.000000 -54.015700 88.199100 182.175000 96.521100 76.908900 -5.720330 15.735700 0.000005 -0.000001 98.061800 81.982600 -99.052000 8.984550 -0.406207 -0.000000 8.135040 2.235640 -2.137590 16.377300 -0.000001 -0.000001 1.505610 -1.102880 1.545430 6.456720 -0.000001 -0.000000 -0.665718 -0.846889 2.643520 12.994200 -0.242716 4.980390 -91.225800 3.806070 -72.133900 5.348090 -0.000007 -0.000001 -69.758000 30.973000 -5.640820 24.328600 0.000019 0.000005 4.537750 22.429800 -11.750100 22.291600 -0.000001 0.000005 10.282800 5.136610 4.261620 12.994500 -0.242716 -4.980390 88.579200 9.153380 -81.137900 -5.348130 -0.000001 -0.000004 -52.454200 28.753200 -27.033700 -24.328900 0.000322 -0.000009 -1.748820 -2.259770 -37.734200 -22.291500 -0.000108 -0.000004 18.585600 5.420680 -3.621890 -2.192480 -6.469440 -0.000000 177.319000 -7.446220 -27.234500 39.081100 -0.000007 -0.000012 -0.217985 0.248940 41.207600 40.985400 -0.000006 -0.000013 1.413080 -3.503610 -63.870400 11.754300 -0.000000 0.000003 -0.000162 -0.001548 -16.636300 -2.192510 6.469440 -0.000001 173.463000 16.504400 179.686000 -39.081100 -0.002282 -0.040193 0.009448 -0.008117 37.206000 -40.985400 0.000008 0.000006 4.216040 3.298570 -77.645600 -11.754300 -0.000006 -0.000006 -0.015532 -0.141140 -22.332400
0.000000 0.000000 0.000000 0.000000 0.000000 -0.000000 -50.904000 88.130300 182.232000 94.617900 76.875900 -3.308550 15.735700 0.000005 -0.000001 99.163700 81.972000 -100.182000 8.984550 -0.406207 -0.000000 8.114430 2.542720 -2.214540 16.377300 -0.000001 -0.000001 1.923090 -1.041200 1.350190 6.456720 -0.000001 -0.000000 -0.164622 -0.977213 2.581110 12.994200 -0.242716 4.980390 -91.370800 4.169170 -71.781400 5.348090 -0.000007 -0.000001 -67.837000 32.267200 -9.084200 24.328600 0.000019 0.000005 4.975670 22.039400 -13.061700 22.291600 -0.000001 0.000005 10.629000 5.131980 4.370200 12.994500 -0.242716 -4.980390 88.567500 9.407220 -81.301400 -5.348130 -0.000001 -0.000004 -54.809800 28.094900 -22.992800 -24.328900 0.000322 -0.000009 -2.219750 -2.981880 -36.682800 -22.291500 -0.000108 -0.000004 18.410900 5.421640 -3.654430 -2.192480 -6.469440 -0.000000 177.702000 -6.773710 -25.159200 39.081100 -0.000007 -0.000012 -0.287216 0.309920 42.823200 40.985400 -0.000006 -0.000013 1.152530 -4.311390 -67.003500 11.754300 -0.000000 0.000003 -0.000261 -0.002319 -16.664300 -2.192510 6.469440 -0.000001 173.274000 14.668900 178.081000 -39.081100 -0.002282 -0.040193 0.049558 -0.048428 43.706700 -40.985400 0.000008 0.000006 3.645900 2.231270 -73.171800 -11.754300 -0.000006 -0.000006 -0.046402 -0.284690 -28.287600
0.000000 0.000000 0.000000 0.000000 0.000000 -0.000000 -47.998400 88.270600 182.307000 92.093900 77.124900 0.053530 15.735700 0.000005 -0.000001 98.736600 81.863600 -99.680700 8.984550 -0.406207 -0.000000 8.344710 2.455610 -2.065780 16.377300 -0.000001 -0.000001 2.262280 -0.731080 1.032920 6.456720 -0.000001 -0.000000 0.269223 -0.774854 2.556040 12.994200 -0.242716 4.980390 -91.361700 4.088100 -71.560600 5.348090 -0.000007 -0.000001 -66.987100 31.526700 -11.664400 24.328600 0.000019 0.000005 6.136450 21.572400 -16.300800 22.291600 -0.000001 0.000005 11.556800 5.136830 4.256480 12.994500 -0.242716 -4.980390 88.554800 9.493550 -81.303400 -5.348130 -0.000001 -0.000004 -56.808400 28.279600 -19.767200 -24.328900 0.000322 -0.000009 -2.818510 -4.139210 -34.288400 -22.291500 -0.000108 -0.000004 17.531300 5.419570 -3.581810 -2.192480 -6.469440 -0.000000 178.211000 -8.063600 -22.188900 39.081100 -0.000007 -0.000012 -0.299355 0.319615 43.125900 40.985400 -0.000006 -0.000013 1.667280 -3.080110 -69.413900 11.754300 -0.000000 0.000003 -0.000332 -0.002829 -16.682600 -2.192510 6.469440 -0.000001 173.477000 12.588000 175.040000 -39.081100 -0.002282 -0.040193 0.102583 -0.078138 51.813100 -40.985400 0.000008 0.000006 2.782610 1.254900 -65.929500 -11.754300 -0.000006 -0.000006 -0.067866 -0.356531 -31.327600
0.000000 0.000000 0.000000 0.000000 0.000000 -0.000000 -45.296500 88.485100 182.432000 89.821300 77.818800 3.147880 15.735700 0.000005 -0.000001 96.561200 81.716000 -97.421100 8.984550 -0.406207 -0.000000 8.711720 1.876680 -1.861380 16.377300 -0.000001 -0.000001 2.500610 -0.460426 0.684902 6.456720 -0.000001 -0.000000 0.444482 -0.239537 2.492130 12.994200 -0.242716 4.980390 -91.244000 3.770190 -71.724500 5.348090 -0.000007 -0.000001 -66.174000 30.949800 -13.842100 24.328600 0.000019 0.000005 7.047940 19.052900 -20.750000 22.291600 -0.000001 0.000005 12.410200 5.158240 3.745990 12.994500 -0.242716 -4.980390 88.529900 9.495250 -81.157500 -5.348130 -0.000001 -0.000004 -58.445900 29.009400 -17.283400 -24.328900 0.000322 -0.000009 -2.112070 -3.459010 -31.412000 -22.291500 -0.000108 -0.000004 16.035600 5.400460 -2.947860 -2.192480 -6.469440 -0.000000 178.773000 -7.936560 -19.006400 39.081100 -0.000007 -0.000012 -0.306965 0.333037 42.667900 40.985400 -0.000006 -0.000013 1.832910 -2.652410 -71.255000 11.754300 -0.000000 0.000003 -0.000386 -0.003207 -16.696000 -2.192510 6.469440 -0.000001 173.869000 11.309600 171.108000 -39.081100 -0.002282 -0.040193 0.155176 -0.087858 59.967600 -40.985400 0.000008 0.000006 2.730510 -0.021298 -58.118500 -11.754300 -0.000006 -0.000006 -0.031949 -0.226261 -25.847300
0.000000 0.000000 0.000000 0.000000 0.000000 -0.000000 -42.721800 88.720500 182.642000 87.698900 78.732400 5.895100 15.735700 0.000005 -0.000001 93.460900 81.617100 -94.211500 8.984550 -0.406207 -0.000000 8.977190 0.998883 -1.578340 16.377300 -0.000001 -0.000001 2.663170 -0.201471 0.392022 6.456720 -0.000001 -0.000000 0.630888 0.340806 2.248130 12.994200 -0.242716 4.980390 -91.201100 3.671950 -71.873300 5.348090 -0.000007 -0.000001 -64.249900 31.657200 -16.454500 24.328600 0.000019 0.000005 7.079810 15.377500 -25.100500 22.291600 -0.000001 0.000005 13.309400 5.190980 2.949150 12.994500 -0.242716 -4.980390 88.460000 9.683590 -80.919100 -5.348130 -0.000001 -0.000004 -59.600100 29.907200 -14.937600 -24.328900 0.000322 -0.000009 -0.563852 -1.016050 -28.940800 -22.291500 -0.000108 -0.000004 14.658000 5.378920 -2.263860 -2.192480 -6.469440 -0.000000 179.283000 -7.350230 -15.908900 39.081100 -0.000007 -0.000012 -0.308592 0.345974 41.732100 40.985400 -0.000006 -0.000013 1.888230 -2.328950 -72.728000 11.754300 -0.000000 0.000003 -0.000423 -0.003464 -16.705000 -2.192510 6.469440 -0.000001 174.461000 11.424300 167.781000 -39.081100 -0.002282 -0.040193 0.178992 -0.079544 65.658800 -40.985400 0.000008 0.000006 3.701010 -2.054130 -54.969500 -11.754300 -0.000006 -0.000006 -0.013522 -0.128298 -21.805500
